# xmcd
#
# Track frame offsets:
# 150
# 12725
# 24355
# 33587
# 45977
# 54955
# 67275
# 79495
# 90357
# 103595
# 114677
# 132080
# 142842
# 161320
# 177362
# 192367
# 203422
# 213102
#
# Disc length: 3044 seconds
#
#
# Revision: 0
# Processed by: cddbd v1.5.1PL2 Copyright (c) Steve Scherf et al.
# Submitted via: FreeRIP 2.944 
#
DISCID=ec0be212
DTITLE=Jimmy Reed - The Masters
DYEAR=1997
DGENRE=Blues
TTITLE0=I Got the Blues
TTITLE1=Down the Road
TTITLE2=Jimmy's Rock
TTITLE3=Roll 'Em Pete
TTITLE4=Laughin' at the Blues
TTITLE5=Kind of Lonesome
TTITLE6=Tell Me You Love Me
TTITLE7=Aw Shucks, Hush Your Mouth
TTITLE8=Take it Slow
TTITLE9=Good Lover
TTITLE10=Down in Mississippi
TTITLE11=Too Much
TTITLE12=Kansas City Baby
TTITLE13=Cold and Lonesome
TTITLE14=Five Long Years
TTITLE15=Trouble in Mind
TTITLE16=When Girls Do It
TTITLE17=(I'm Gonna Move to) The Outskirts of Town
EXTD=
EXTT0=
EXTT1=
EXTT2=
EXTT3=
EXTT4=
EXTT5=
EXTT6=
EXTT7=
EXTT8=
EXTT9=
EXTT10=
EXTT11=
EXTT12=
EXTT13=
EXTT14=
EXTT15=
EXTT16=
EXTT17=
PLAYORDER=
